<svg xmlns="http://www.w3.org/2000/svg" xmlns:xlink="http://www.w3.org/1999/xlink" preserveAspectRatio="xMidYMid" width="24" height="20.03" viewBox="0 0 24 20.03">
  <defs>
    <style>
      .cls-1 {
        fill: var(--subtle-text-color);
        fill-rule: evenodd;
      }
    </style>
  </defs>
  <path d="M22.000,20.030 L2.000,20.030 C0.897,20.030 -0.000,18.985 -0.000,17.889 L-0.000,1.990 C-0.000,0.893 0.897,0.002 2.000,0.002 L9.000,0.002 C9.031,0.002 9.057,0.017 9.088,0.020 C9.155,0.026 9.219,0.040 9.285,0.059 C9.351,0.079 9.412,0.103 9.472,0.136 C9.499,0.150 9.529,0.152 9.555,0.169 L12.364,2.030 L16.798,2.030 C16.865,2.016 16.928,1.990 17.000,1.990 C17.072,1.990 17.135,2.016 17.202,2.030 L22.000,2.030 C23.102,2.030 24.000,2.881 24.000,3.977 L24.000,17.889 C24.000,18.985 23.102,20.030 22.000,20.030 ZM16.000,3.977 L12.000,3.977 C12.000,3.977 12.000,3.977 11.999,3.977 C11.999,3.977 11.999,3.977 11.999,3.977 C11.882,3.977 11.767,3.949 11.654,3.908 C11.618,3.895 11.587,3.878 11.553,3.860 C11.517,3.842 11.479,3.833 11.445,3.810 L8.698,1.990 L2.000,1.990 L2.000,18.030 L16.000,18.030 L16.000,15.033 L15.000,15.033 C14.447,15.033 14.000,14.588 14.000,14.039 C14.000,13.490 14.447,13.045 15.000,13.045 L16.000,13.045 L16.000,10.996 L15.000,10.996 C14.447,10.996 14.000,10.551 14.000,10.002 L14.000,6.027 C14.000,5.478 14.447,5.034 15.000,5.034 L16.000,5.034 L16.000,3.977 ZM16.000,7.021 L16.000,9.008 L18.000,9.008 L18.000,7.021 L16.000,7.021 ZM22.000,3.977 L18.000,3.977 L18.000,5.034 L19.000,5.034 C19.553,5.034 20.000,5.478 20.000,6.027 L20.000,10.002 C20.000,10.551 19.553,10.996 19.000,10.996 L18.000,10.996 L18.000,12.051 L19.000,12.051 C19.553,12.051 20.000,12.497 20.000,13.045 C20.000,13.594 19.553,14.039 19.000,14.039 L18.000,14.039 L18.000,15.033 L19.000,15.033 C19.553,15.033 20.000,15.478 20.000,16.026 C20.000,16.575 19.553,17.020 19.000,17.020 L18.000,17.020 L18.000,18.030 L22.000,18.030 L22.000,3.977 Z" class="cls-1"/>
</svg>
